<svg xmlns="http://www.w3.org/2000/svg" viewBox="0 0 25 25"><defs><style>.cls-1{fill:#ff2d55;}</style></defs><title>Asset 1</title><g id="Layer_2" data-name="Layer 2"><g id="Health"><g id="Top-Bar"><path id="Account-Icon" class="cls-1" d="M12.5,25A12.5,12.5,0,1,0,0,12.5,12.5,12.5,0,0,0,12.5,25Zm0-1A11.5,11.5,0,1,1,24,12.5,11.5,11.5,0,0,1,12.5,24Zm0,0h0V3.25a5.61,5.61,0,0,0-1.75.25A5.16,5.16,0,0,0,9,4.5C7,6,8,10,8,10l-.25.25A1.07,1.07,0,0,0,7.5,11a1.92,1.92,0,0,0,.75,1.25A7.67,7.67,0,0,0,10,16.75a3.17,3.17,0,0,1-.5,3S6.37,20.6,5,21a8.65,8.65,0,0,0,1.5,1.25,15.39,15.39,0,0,0,2,1,12.58,12.58,0,0,0,1.94.48A13.83,13.83,0,0,0,12.5,24h0V3.25a5.61,5.61,0,0,1,1.75.25A5.16,5.16,0,0,1,16,4.5C18,6,17,10,17,10l.25.25a1.07,1.07,0,0,1,.25.75,1.92,1.92,0,0,1-.75,1.25A7.67,7.67,0,0,1,15,16.75a3.17,3.17,0,0,0,.5,3S18.63,20.6,20,21a8.65,8.65,0,0,1-1.5,1.25,15.39,15.39,0,0,1-2,1,12.58,12.58,0,0,1-1.94.48A13.83,13.83,0,0,1,12.5,24Z"/></g></g></g></svg>