<svg xmlns="http://www.w3.org/2000/svg" viewBox="0 0 48.68 37.33"><defs><style>.cls-1{fill:#030104;}.cls-2{fill:none;stroke:#979797;}.cls-3{isolation:isolate;font-size:7.24px;fill:#8c8c8c;font-family:SFUIText-Regular, SFUIText Regular;letter-spacing:0.01em;}</style></defs><title>sushi2</title><g id="Layer_2" data-name="Layer 2"><g id="Capa_1" data-name="Capa 1"><path class="cls-1" d="M38.22,33.69c-1.19-.81-2.41-1.56-3.6-2.38-1.88-1.29-3.7-2.68-5.57-4-5.45-3.83-11.47-5.5-18.06-6a29,29,0,0,0-4.53,0,6.72,6.72,0,0,0-2,.36v.13a23.09,23.09,0,0,0-.11,2.85,20.25,20.25,0,0,0,.32,2.78,5,5,0,0,0,1.43,2.62A4,4,0,0,0,7.87,31h0c.06,0,6.48.61,11.72,1.69a79.48,79.48,0,0,1,9.16,2.69c.18.07,4.51,1.9,7.74,1.9a6,6,0,0,0,1.59-.19,4.49,4.49,0,0,0,2-1.35,3.22,3.22,0,0,0,.45-.71s-.57-.27-1.19-.65C39,34.2,38.59,33.94,38.22,33.69Z"/><path class="cls-1" d="M48.46,32.18a6.64,6.64,0,0,0-2.68-2.41h0c-.62-.26-1.3-.51-2-.75a21.94,21.94,0,0,0-8.38-1.16c-1.1.08-1.16-.11-.09-.38a17,17,0,0,1,8.69.18c.46.13.92.28,1.39.46.76.28,1-.27.51-1.25-.23-.43-.5-.93-.83-1.47a6.14,6.14,0,0,0-3-2.36,17.46,17.46,0,0,0-11.82.9l-.36.15c-.2.08-.26.08-.14,0l.22-.17a13.52,13.52,0,0,1,10.71-2.43c1.08.21,1.38-.2.63-1q-.72-.78-1.55-1.57a6.38,6.38,0,0,0-3.48-1.53,18.18,18.18,0,0,0-9.82,2.52c-1,.55-1.13.35-.29-.36a14,14,0,0,1,8.55-3.22c1.1,0,1.28-.49.35-1.09Q34,14.5,32.84,13.86a7.13,7.13,0,0,0-3.78-.7,15.76,15.76,0,0,0-8.62,4.4c-.79.77-1,.66-.31-.23a13.25,13.25,0,0,1,6.74-4.85c1.06-.32,1.19-.72.23-1q-.85-.28-1.75-.52s-.33-.11-.92-.26a5.92,5.92,0,0,0-2.83.41,16.91,16.91,0,0,0-7.1,5.32c-.69.86-.93.76-.42-.23a12.48,12.48,0,0,1,5.21-5.27c1-.52.93-.93-.17-1-.43,0-.88,0-1.34,0a7.65,7.65,0,0,0-3.67,1.22,22.3,22.3,0,0,0-5,5.14c-.64.9-.81.82-.34-.18A19.23,19.23,0,0,1,11.42,12c.71-.84.52-1.23-.52-.85-.52.19-1,.41-1.57.65a9.51,9.51,0,0,0-3,2.49,20.87,20.87,0,0,0-1.76,2.84c-.51,1-.69.93-.34-.12.11-.33.24-.69.4-1.07.43-1,.2-1.23-.59-.46A22.73,22.73,0,0,0,.44,20.1a5.77,5.77,0,0,0-.41.75c-.19.43.57.47,1.66.26s2.62-.47,2.83-.5l.54-.08a29,29,0,0,1,6.51-.26c6.59.48,12.61,2.16,18.06,6,1.87,1.31,3.69,2.7,5.57,4,1.19.81,2.41,1.57,3.6,2.38A15,15,0,0,0,41.09,34a5.37,5.37,0,0,0,1.26.41A14,14,0,0,0,47.47,34C48.55,33.75,49,33,48.46,32.18Z"/><g id="Icon_1" data-name="Icon #1"><ellipse id="_Path_" data-name="&lt;Path&gt;" class="cls-2" cx="37.6" cy="11.35" rx="9.96" ry="10.85"/><text class="cls-3" transform="translate(35.76 14.17) scale(0.92 1)">1</text></g></g></g></svg>